<?xml version="1.0" standalone="no"?>
<!DOCTYPE svg PUBLIC "-//W3C//DTD SVG 20010904//EN"
 "http://www.w3.org/TR/2001/REC-SVG-20010904/DTD/svg10.dtd">
<svg version="1.0" xmlns="http://www.w3.org/2000/svg"
 width="526.000000pt" height="526.000000pt" viewBox="0 0 526.000000 526.000000"
 preserveAspectRatio="xMidYMid meet">
<metadata>
Created by potrace 1.11, written by Peter Selinger 2001-2013
</metadata>
<g transform="translate(0.000000,526.000000) scale(0.100000,-0.100000)"
fill="#000000" stroke="none">
<path d="M2385 5210 c-141 -17 -161 -20 -220 -31 -240 -43 -457 -115 -690
-229 -113 -54 -352 -195 -375 -220 -3 -3 -30 -24 -60 -46 -30 -23 -73 -56 -95
-75 -45 -38 -302 -295 -325 -325 -8 -11 -42 -55 -76 -99 -60 -80 -124 -172
-124 -180 0 -3 -16 -30 -36 -61 -40 -62 -129 -238 -167 -329 -29 -70 -97 -263
-97 -276 0 -5 1028 -9 2516 -8 2101 1 2515 3 2510 14 -3 8 -10 33 -16 57 -20
74 -101 268 -160 383 -214 418 -522 761 -908 1013 -63 40 -128 80 -145 88 -18
8 -59 29 -92 47 -217 118 -539 221 -819 262 -23 4 -54 8 -71 11 -58 9 -481 12
-550 4z"/>
<path d="M123 3292 c-13 -2 -23 -6 -23 -10 0 -4 -11 -57 -24 -117 -27 -122
-33 -154 -41 -235 -4 -30 -8 -65 -11 -77 l-4 -23 2608 0 c1435 0 2611 2 2614
5 7 7 -18 187 -42 300 -11 55 -24 112 -27 128 -3 15 -11 27 -17 28 -33 3
-5015 3 -5033 1z"/>
<path d="M224 2772 c-193 -2 -202 -3 -207 -23 -6 -24 -6 -276 1 -301 4 -16
168 -17 2617 -16 l2613 0 4 23 c7 35 3 303 -4 310 -6 7 -4615 13 -5024 7z"/>
<path d="M29 2352 c-5 -36 31 -286 43 -298 6 -6 5119 -6 5125 0 7 7 33 167 39
238 l6 67 -2606 0 c-1433 0 -2606 -3 -2607 -7z"/>
<path d="M105 1911 c12 -63 55 -190 68 -198 7 -4 1118 -8 2469 -9 l2457 0 12
30 c19 53 59 189 59 201 0 9 -622 12 -2536 12 l-2536 0 7 -36z"/>
<path d="M240 1535 c0 -5 17 -44 38 -85 l37 -75 2320 0 2320 0 38 78 c21 43
36 81 33 85 -11 10 -4786 8 -4786 -3z"/>
<path d="M460 1140 c0 -5 17 -34 38 -64 l37 -55 2097 -1 2097 0 41 55 c22 30
40 59 40 65 0 7 -647 10 -2175 10 -1248 -1 -2175 -5 -2175 -10z"/>
<path d="M744 791 c-2 -3 15 -24 38 -48 l42 -43 1811 0 1811 0 42 43 c23 23
42 45 42 48 0 7 -3779 7 -3786 0z"/>
<path d="M1150 442 c0 -4 16 -18 36 -31 l35 -24 1410 -1 1411 -1 39 25 c21 14
39 28 39 33 0 4 -668 7 -1485 7 -817 0 -1485 -4 -1485 -8z"/>
<path d="M1990 59 c0 -21 138 -26 645 -24 638 2 606 1 628 18 14 10 -109 12
-628 12 -355 0 -645 -3 -645 -6z"/>
</g>
</svg>
