<svg version="1.0" xmlns="http://www.w3.org/2000/svg" width="701.333" height="701.333" viewBox="0 0 526 526"><path d="M238.5 5c-14.1 1.7-16.1 2-22 3.1-24 4.3-45.7 11.5-69 22.9-11.3 5.4-35.2 19.5-37.5 22-.3.3-3 2.4-6 4.6-3 2.3-7.3 5.6-9.5 7.5C90 68.9 64.3 94.6 62 97.6c-.8 1.1-4.2 5.5-7.6 9.9-6 8-12.4 17.2-12.4 18 0 .3-1.6 3-3.6 6.1-4 6.2-12.9 23.8-16.7 32.9-2.9 7-9.7 26.3-9.7 27.6 0 .5 102.8.9 251.6.8 210.1-.1 251.5-.3 251-1.4-.3-.8-1-3.3-1.6-5.7-2-7.4-10.1-26.8-16-38.3-21.4-41.8-52.2-76.1-90.8-101.3-6.3-4-12.8-8-14.5-8.8-1.8-.8-5.9-2.9-9.2-4.7-21.7-11.8-53.9-22.1-81.9-26.2-2.3-.4-5.4-.8-7.1-1.1-5.8-.9-48.1-1.2-55-.4zM12.3 196.8c-1.3.2-2.3.6-2.3 1s-1.1 5.7-2.4 11.7c-2.7 12.2-3.3 15.4-4.1 23.5-.4 3-.8 6.5-1.1 7.7L2 243h260.8c143.5 0 261.1-.2 261.4-.5.7-.7-1.8-18.7-4.2-30-1.1-5.5-2.4-11.2-2.7-12.8-.3-1.5-1.1-2.7-1.7-2.8-3.3-.3-501.5-.3-503.3-.1zM22.4 248.8c-19.3.2-20.2.3-20.7 2.3-.6 2.4-.6 27.6.1 30.1.4 1.6 16.8 1.7 261.7 1.6h261.3l.4-2.3c.7-3.5.3-30.3-.4-31-.6-.7-461.5-1.3-502.4-.7zM2.9 290.8c-.5 3.6 3.1 28.6 4.3 29.8.6.6 511.9.6 512.5 0 .7-.7 3.3-16.7 3.9-23.8l.6-6.7H263.6c-143.3 0-260.6.3-260.7.7zM10.5 334.9c1.2 6.3 5.5 19 6.8 19.8.7.4 111.8.8 246.9.9h245.7l1.2-3c1.9-5.3 5.9-18.9 5.9-20.1 0-.9-62.2-1.2-253.6-1.2H9.8l.7 3.6zM24 372.5c0 .5 1.7 4.4 3.8 8.5l3.7 7.5h464l3.8-7.8c2.1-4.3 3.6-8.1 3.3-8.5-1.1-1-478.6-.8-478.6.3zM46 412c0 .5 1.7 3.4 3.8 6.4l3.7 5.5 209.7.1h209.7l4.1-5.5c2.2-3 4-5.9 4-6.5 0-.7-64.7-1-217.5-1-124.8.1-217.5.5-217.5 1zM74.4 446.9c-.2.3 1.5 2.4 3.8 4.8l4.2 4.3h362.2l4.2-4.3c2.3-2.3 4.2-4.5 4.2-4.8 0-.7-377.9-.7-378.6 0zM115 481.8c0 .4 1.6 1.8 3.6 3.1l3.5 2.4 141 .1 141.1.1 3.9-2.5c2.1-1.4 3.9-2.8 3.9-3.3 0-.4-66.8-.7-148.5-.7s-148.5.4-148.5.8zM199 520.1c0 2.1 13.8 2.6 64.5 2.4 63.8-.2 60.6-.1 62.8-1.8 1.4-1-10.9-1.2-62.8-1.2-35.5 0-64.5.3-64.5.6z"/></svg>